<?xml version="1.0" encoding="UTF-8" standalone="no"?><svg xmlns="http://www.w3.org/2000/svg" xmlns:xlink="http://www.w3.org/1999/xlink" contentStyleType="text/css" height="825px" preserveAspectRatio="none" style="width:641px;height:825px;background:#FFFFFF;" version="1.1" viewBox="0 0 641 825" width="641px" zoomAndPan="magnify"><defs/><g><rect fill="none" height="26.2969" id="_title" style="stroke:none;stroke-width:1.0;" width="219" x="210" y="10"/><text fill="#000000" font-family="sans-serif" font-size="14" font-weight="bold" lengthAdjust="spacing" textLength="209" x="215" y="27.9951">Asset Discovery CMA/SWC</text><rect fill="none" height="359.1328" style="stroke:#000000;stroke-width:1.5;" width="469.5" x="154.5" y="339.5234"/><line style="stroke:#181818;stroke-width:0.5;stroke-dasharray:5.0,5.0;" x1="24" x2="24" y1="118.5938" y2="744.7891"/><line style="stroke:#181818;stroke-width:0.5;stroke-dasharray:5.0,5.0;" x1="186.5" x2="186.5" y1="118.5938" y2="744.7891"/><line style="stroke:#181818;stroke-width:0.5;stroke-dasharray:5.0,5.0;" x1="431" x2="431" y1="118.5938" y2="744.7891"/><line style="stroke:#181818;stroke-width:0.5;stroke-dasharray:5.0,5.0;" x1="619" x2="619" y1="118.5938" y2="744.7891"/><text fill="#000000" font-family="sans-serif" font-size="14" lengthAdjust="spacing" textLength="32" x="5" y="115.292">User</text><ellipse cx="24" cy="50.7969" fill="#E2E2F0" rx="8" ry="8" style="stroke:#181818;stroke-width:0.5;"/><path d="M24,58.7969 L24,85.7969 M11,66.7969 L37,66.7969 M24,85.7969 L11,100.7969 M24,85.7969 L37,100.7969 " fill="none" style="stroke:#181818;stroke-width:0.5;"/><text fill="#000000" font-family="sans-serif" font-size="14" lengthAdjust="spacing" textLength="32" x="5" y="756.7842">User</text><ellipse cx="24" cy="768.5859" fill="#E2E2F0" rx="8" ry="8" style="stroke:#181818;stroke-width:0.5;"/><path d="M24,776.5859 L24,803.5859 M11,784.5859 L37,784.5859 M24,803.5859 L11,818.5859 M24,803.5859 L37,818.5859 " fill="none" style="stroke:#181818;stroke-width:0.5;"/><rect fill="#E2E2F0" height="30.2969" rx="2.5" ry="2.5" style="stroke:#181818;stroke-width:0.5;" width="45" x="164.5" y="87.2969"/><text fill="#000000" font-family="sans-serif" font-size="14" lengthAdjust="spacing" textLength="31" x="171.5" y="107.292">CMA</text><rect fill="#E2E2F0" height="30.2969" rx="2.5" ry="2.5" style="stroke:#181818;stroke-width:0.5;" width="45" x="164.5" y="743.7891"/><text fill="#000000" font-family="sans-serif" font-size="14" lengthAdjust="spacing" textLength="31" x="171.5" y="763.7842">CMA</text><rect fill="#E2E2F0" height="30.2969" rx="2.5" ry="2.5" style="stroke:#181818;stroke-width:0.5;" width="46" x="408" y="87.2969"/><text fill="#000000" font-family="sans-serif" font-size="14" lengthAdjust="spacing" textLength="32" x="415" y="107.292">SWC</text><rect fill="#E2E2F0" height="30.2969" rx="2.5" ry="2.5" style="stroke:#181818;stroke-width:0.5;" width="46" x="408" y="743.7891"/><text fill="#000000" font-family="sans-serif" font-size="14" lengthAdjust="spacing" textLength="32" x="415" y="763.7842">SWC</text><rect fill="#E2E2F0" height="30.2969" rx="2.5" ry="2.5" style="stroke:#181818;stroke-width:0.5;" width="32" x="603" y="87.2969"/><text fill="#000000" font-family="sans-serif" font-size="14" lengthAdjust="spacing" textLength="18" x="610" y="107.292">FC</text><rect fill="#E2E2F0" height="30.2969" rx="2.5" ry="2.5" style="stroke:#181818;stroke-width:0.5;" width="32" x="603" y="743.7891"/><text fill="#000000" font-family="sans-serif" font-size="14" lengthAdjust="spacing" textLength="18" x="610" y="763.7842">FC</text><polygon fill="#181818" points="175,145.7266,185,149.7266,175,153.7266,179,149.7266" style="stroke:#181818;stroke-width:1.0;"/><line style="stroke:#181818;stroke-width:1.0;" x1="24" x2="181" y1="149.7266" y2="149.7266"/><text fill="#000000" font-family="sans-serif" font-size="13" lengthAdjust="spacing" textLength="92" x="31" y="144.6606">View Providers</text><polygon fill="#181818" points="607,174.8594,617,178.8594,607,182.8594,611,178.8594" style="stroke:#181818;stroke-width:1.0;"/><line style="stroke:#181818;stroke-width:1.0;" x1="187" x2="613" y1="178.8594" y2="178.8594"/><text fill="#000000" font-family="sans-serif" font-size="13" lengthAdjust="spacing" textLength="125" x="194" y="173.7935">Create Provider List</text><polygon fill="#181818" points="198,186.8594,188,190.8594,198,194.8594,194,190.8594" style="stroke:#181818;stroke-width:1.0;"/><line style="stroke:#181818;stroke-width:1.0;stroke-dasharray:2.0,2.0;" x1="192" x2="618" y1="190.8594" y2="190.8594"/><text fill="#000000" font-family="sans-serif" font-size="13" lengthAdjust="spacing" textLength="78" x="204" y="203.9263">Provider List</text><polygon fill="#181818" points="35,215.9922,25,219.9922,35,223.9922,31,219.9922" style="stroke:#181818;stroke-width:1.0;"/><line style="stroke:#181818;stroke-width:1.0;stroke-dasharray:2.0,2.0;" x1="29" x2="186" y1="219.9922" y2="219.9922"/><text fill="#000000" font-family="sans-serif" font-size="13" lengthAdjust="spacing" textLength="102" x="41" y="233.0591">Display Provider</text><polygon fill="#181818" points="175,262.2578,185,266.2578,175,270.2578,179,266.2578" style="stroke:#181818;stroke-width:1.0;"/><line style="stroke:#181818;stroke-width:1.0;" x1="24" x2="181" y1="266.2578" y2="266.2578"/><text fill="#000000" font-family="sans-serif" font-size="13" lengthAdjust="spacing" textLength="139" x="31" y="261.1919">Select Provider "SWC"</text><polygon fill="#181818" points="607,291.3906,617,295.3906,607,299.3906,611,295.3906" style="stroke:#181818;stroke-width:1.0;"/><line style="stroke:#181818;stroke-width:1.0;" x1="187" x2="613" y1="295.3906" y2="295.3906"/><text fill="#000000" font-family="sans-serif" font-size="13" lengthAdjust="spacing" textLength="263" x="194" y="290.3247">Request Connector-URL/VC-Type for SWC</text><polygon fill="#181818" points="198,303.3906,188,307.3906,198,311.3906,194,307.3906" style="stroke:#181818;stroke-width:1.0;"/><line style="stroke:#181818;stroke-width:1.0;stroke-dasharray:2.0,2.0;" x1="192" x2="618" y1="307.3906" y2="307.3906"/><text fill="#000000" font-family="sans-serif" font-size="13" lengthAdjust="spacing" textLength="94" x="204" y="320.4575">SWC Metadata</text><path d="M154.5,339.5234 L218.5,339.5234 L218.5,346.6563 L208.5,356.6563 L154.5,356.6563 L154.5,339.5234 " fill="#EEEEEE" style="stroke:#000000;stroke-width:1.5;"/><rect fill="none" height="359.1328" style="stroke:#000000;stroke-width:1.5;" width="469.5" x="154.5" y="339.5234"/><text fill="#000000" font-family="sans-serif" font-size="13" font-weight="bold" lengthAdjust="spacing" textLength="19" x="169.5" y="352.5903">alt</text><text fill="#000000" font-family="sans-serif" font-size="11" font-weight="bold" lengthAdjust="spacing" textLength="90" x="233.5" y="351.7339">[Case "OIDC"]</text><polygon fill="#181818" points="419,373.7891,429,377.7891,419,381.7891,423,377.7891" style="stroke:#181818;stroke-width:1.0;"/><line style="stroke:#181818;stroke-width:1.0;" x1="187" x2="425" y1="377.7891" y2="377.7891"/><text fill="#000000" font-family="sans-serif" font-size="13" lengthAdjust="spacing" textLength="220" x="194" y="372.7231">Request Asset List (Access-Token)</text><line style="stroke:#181818;stroke-width:1.0;" x1="431" x2="473" y1="406.9219" y2="406.9219"/><line style="stroke:#181818;stroke-width:1.0;" x1="473" x2="473" y1="406.9219" y2="419.9219"/><line style="stroke:#181818;stroke-width:1.0;" x1="432" x2="473" y1="419.9219" y2="419.9219"/><polygon fill="#181818" points="442,415.9219,432,419.9219,442,423.9219,438,419.9219" style="stroke:#181818;stroke-width:1.0;"/><text fill="#000000" font-family="sans-serif" font-size="13" lengthAdjust="spacing" textLength="127" x="438" y="401.856">Verify Access Token</text><line style="stroke:#181818;stroke-width:1.0;" x1="431" x2="473" y1="449.0547" y2="449.0547"/><line style="stroke:#181818;stroke-width:1.0;" x1="473" x2="473" y1="449.0547" y2="462.0547"/><line style="stroke:#181818;stroke-width:1.0;" x1="432" x2="473" y1="462.0547" y2="462.0547"/><polygon fill="#181818" points="442,458.0547,432,462.0547,442,466.0547,438,462.0547" style="stroke:#181818;stroke-width:1.0;"/><text fill="#000000" font-family="sans-serif" font-size="13" lengthAdjust="spacing" textLength="126" x="438" y="443.9888">Generate Asset List</text><polygon fill="#181818" points="198,470.0547,188,474.0547,198,478.0547,194,474.0547" style="stroke:#181818;stroke-width:1.0;"/><line style="stroke:#181818;stroke-width:1.0;stroke-dasharray:2.0,2.0;" x1="192" x2="430" y1="474.0547" y2="474.0547"/><text fill="#000000" font-family="sans-serif" font-size="13" lengthAdjust="spacing" textLength="62" x="204" y="487.1216">Asset List</text><line style="stroke:#000000;stroke-width:1.0;stroke-dasharray:2.0,2.0;" x1="154.5" x2="624" y1="500.1875" y2="500.1875"/><text fill="#000000" font-family="sans-serif" font-size="11" font-weight="bold" lengthAdjust="spacing" textLength="95" x="159.5" y="510.3979">[Case "VC/VP"]</text><line style="stroke:#181818;stroke-width:1.0;" x1="187" x2="229" y1="535.125" y2="535.125"/><line style="stroke:#181818;stroke-width:1.0;" x1="229" x2="229" y1="535.125" y2="548.125"/><line style="stroke:#181818;stroke-width:1.0;" x1="188" x2="229" y1="548.125" y2="548.125"/><polygon fill="#181818" points="198,544.125,188,548.125,198,552.125,194,548.125" style="stroke:#181818;stroke-width:1.0;"/><text fill="#000000" font-family="sans-serif" font-size="13" lengthAdjust="spacing" textLength="64" x="194" y="530.0591">Create VP</text><polygon fill="#181818" points="419,573.2578,429,577.2578,419,581.2578,423,577.2578" style="stroke:#181818;stroke-width:1.0;"/><line style="stroke:#181818;stroke-width:1.0;" x1="187" x2="425" y1="577.2578" y2="577.2578"/><text fill="#000000" font-family="sans-serif" font-size="13" lengthAdjust="spacing" textLength="149" x="194" y="572.1919">Request Asset List (VP)</text><line style="stroke:#181818;stroke-width:1.0;" x1="431" x2="473" y1="606.3906" y2="606.3906"/><line style="stroke:#181818;stroke-width:1.0;" x1="473" x2="473" y1="606.3906" y2="619.3906"/><line style="stroke:#181818;stroke-width:1.0;" x1="432" x2="473" y1="619.3906" y2="619.3906"/><polygon fill="#181818" points="442,615.3906,432,619.3906,442,623.3906,438,619.3906" style="stroke:#181818;stroke-width:1.0;"/><text fill="#000000" font-family="sans-serif" font-size="13" lengthAdjust="spacing" textLength="174" x="438" y="601.3247">Verify VP and contained VC</text><line style="stroke:#181818;stroke-width:1.0;" x1="431" x2="473" y1="648.5234" y2="648.5234"/><line style="stroke:#181818;stroke-width:1.0;" x1="473" x2="473" y1="648.5234" y2="661.5234"/><line style="stroke:#181818;stroke-width:1.0;" x1="432" x2="473" y1="661.5234" y2="661.5234"/><polygon fill="#181818" points="442,657.5234,432,661.5234,442,665.5234,438,661.5234" style="stroke:#181818;stroke-width:1.0;"/><text fill="#000000" font-family="sans-serif" font-size="13" lengthAdjust="spacing" textLength="126" x="438" y="643.4575">Generate Asset List</text><polygon fill="#181818" points="198,669.5234,188,673.5234,198,677.5234,194,673.5234" style="stroke:#181818;stroke-width:1.0;"/><line style="stroke:#181818;stroke-width:1.0;stroke-dasharray:2.0,2.0;" x1="192" x2="430" y1="673.5234" y2="673.5234"/><text fill="#000000" font-family="sans-serif" font-size="13" lengthAdjust="spacing" textLength="62" x="204" y="686.5903">Asset List</text><polygon fill="#181818" points="35,705.6563,25,709.6563,35,713.6563,31,709.6563" style="stroke:#181818;stroke-width:1.0;"/><line style="stroke:#181818;stroke-width:1.0;stroke-dasharray:2.0,2.0;" x1="29" x2="186" y1="709.6563" y2="709.6563"/><text fill="#000000" font-family="sans-serif" font-size="13" lengthAdjust="spacing" textLength="93" x="41" y="722.7231">Display Assets</text></g></svg>