<?xml version="1.0" encoding="us-ascii" standalone="no"?><svg xmlns="http://www.w3.org/2000/svg" xmlns:xlink="http://www.w3.org/1999/xlink" contentStyleType="text/css" height="881px" preserveAspectRatio="none" style="width:813px;height:881px;background:#FFFFFF;" version="1.1" viewBox="0 0 813 881" width="813px" zoomAndPan="magnify"><defs/><g><text fill="#000000" font-family="sans-serif" font-size="14" font-weight="bold" lengthAdjust="spacing" textLength="209" x="300.5" y="27.9951">Asset Discovery CMA/SWC</text><rect fill="none" height="394.2656" style="stroke:#000000;stroke-width:1.5;" width="469.5" x="154.5" y="389.7891"/><line style="stroke:#181818;stroke-width:0.5;stroke-dasharray:5.0,5.0;" x1="24" x2="24" y1="118.5938" y2="801.0547"/><line style="stroke:#181818;stroke-width:0.5;stroke-dasharray:5.0,5.0;" x1="186.5" x2="186.5" y1="118.5938" y2="801.0547"/><line style="stroke:#181818;stroke-width:0.5;stroke-dasharray:5.0,5.0;" x1="431" x2="431" y1="118.5938" y2="801.0547"/><line style="stroke:#181818;stroke-width:0.5;stroke-dasharray:5.0,5.0;" x1="618.5" x2="618.5" y1="118.5938" y2="801.0547"/><line style="stroke:#181818;stroke-width:0.5;stroke-dasharray:5.0,5.0;" x1="682.5" x2="682.5" y1="118.5938" y2="801.0547"/><text fill="#000000" font-family="sans-serif" font-size="14" lengthAdjust="spacing" textLength="32" x="5" y="115.292">User</text><ellipse cx="24" cy="50.7969" fill="#E2E2F0" rx="8" ry="8" style="stroke:#181818;stroke-width:0.5;"/><path d="M24,58.7969 L24,85.7969 M11,66.7969 L37,66.7969 M24,85.7969 L11,100.7969 M24,85.7969 L37,100.7969 " fill="none" style="stroke:#181818;stroke-width:0.5;"/><text fill="#000000" font-family="sans-serif" font-size="14" lengthAdjust="spacing" textLength="32" x="5" y="813.0498">User</text><ellipse cx="24" cy="824.8516" fill="#E2E2F0" rx="8" ry="8" style="stroke:#181818;stroke-width:0.5;"/><path d="M24,832.8516 L24,859.8516 M11,840.8516 L37,840.8516 M24,859.8516 L11,874.8516 M24,859.8516 L37,874.8516 " fill="none" style="stroke:#181818;stroke-width:0.5;"/><rect fill="#E2E2F0" height="30.2969" rx="2.5" ry="2.5" style="stroke:#181818;stroke-width:0.5;" width="45" x="164.5" y="87.2969"/><text fill="#000000" font-family="sans-serif" font-size="14" lengthAdjust="spacing" textLength="31" x="171.5" y="107.292">CMA</text><rect fill="#E2E2F0" height="30.2969" rx="2.5" ry="2.5" style="stroke:#181818;stroke-width:0.5;" width="45" x="164.5" y="800.0547"/><text fill="#000000" font-family="sans-serif" font-size="14" lengthAdjust="spacing" textLength="31" x="171.5" y="820.0498">CMA</text><rect fill="#E2E2F0" height="30.2969" rx="2.5" ry="2.5" style="stroke:#181818;stroke-width:0.5;" width="46" x="408" y="87.2969"/><text fill="#000000" font-family="sans-serif" font-size="14" lengthAdjust="spacing" textLength="32" x="415" y="107.292">SWC</text><rect fill="#E2E2F0" height="30.2969" rx="2.5" ry="2.5" style="stroke:#181818;stroke-width:0.5;" width="46" x="408" y="800.0547"/><text fill="#000000" font-family="sans-serif" font-size="14" lengthAdjust="spacing" textLength="32" x="415" y="820.0498">SWC</text><rect fill="#E2E2F0" height="30.2969" rx="2.5" ry="2.5" style="stroke:#181818;stroke-width:0.5;" width="75" x="581.5" y="87.2969"/><text fill="#000000" font-family="sans-serif" font-size="14" lengthAdjust="spacing" textLength="61" x="588.5" y="107.292">Keycloak</text><rect fill="#E2E2F0" height="30.2969" rx="2.5" ry="2.5" style="stroke:#181818;stroke-width:0.5;" width="75" x="581.5" y="800.0547"/><text fill="#000000" font-family="sans-serif" font-size="14" lengthAdjust="spacing" textLength="61" x="588.5" y="820.0498">Keycloak</text><rect fill="#E2E2F0" height="30.2969" rx="2.5" ry="2.5" style="stroke:#181818;stroke-width:0.5;" width="32" x="666.5" y="87.2969"/><text fill="#000000" font-family="sans-serif" font-size="14" lengthAdjust="spacing" textLength="18" x="673.5" y="107.292">FC</text><rect fill="#E2E2F0" height="30.2969" rx="2.5" ry="2.5" style="stroke:#181818;stroke-width:0.5;" width="32" x="666.5" y="800.0547"/><text fill="#000000" font-family="sans-serif" font-size="14" lengthAdjust="spacing" textLength="18" x="673.5" y="820.0498">FC</text><polygon fill="#181818" points="175,145.7266,185,149.7266,175,153.7266,179,149.7266" style="stroke:#181818;stroke-width:1.0;"/><line style="stroke:#181818;stroke-width:1.0;" x1="24" x2="181" y1="149.7266" y2="149.7266"/><text fill="#000000" font-family="sans-serif" font-size="13" lengthAdjust="spacing" textLength="92" x="31" y="144.6606">View Providers</text><polygon fill="#181818" points="670.5,174.8594,680.5,178.8594,670.5,182.8594,674.5,178.8594" style="stroke:#181818;stroke-width:1.0;"/><line style="stroke:#181818;stroke-width:1.0;" x1="187" x2="676.5" y1="178.8594" y2="178.8594"/><text fill="#000000" font-family="sans-serif" font-size="13" lengthAdjust="spacing" textLength="125" x="194" y="173.7935">Create Provider List</text><polygon fill="#181818" points="198,186.8594,188,190.8594,198,194.8594,194,190.8594" style="stroke:#181818;stroke-width:1.0;"/><line style="stroke:#181818;stroke-width:1.0;stroke-dasharray:2.0,2.0;" x1="192" x2="681.5" y1="190.8594" y2="190.8594"/><text fill="#000000" font-family="sans-serif" font-size="13" lengthAdjust="spacing" textLength="78" x="204" y="203.9263">Provider List</text><polygon fill="#181818" points="35,215.9922,25,219.9922,35,223.9922,31,219.9922" style="stroke:#181818;stroke-width:1.0;"/><line style="stroke:#181818;stroke-width:1.0;stroke-dasharray:2.0,2.0;" x1="29" x2="186" y1="219.9922" y2="219.9922"/><text fill="#000000" font-family="sans-serif" font-size="13" lengthAdjust="spacing" textLength="102" x="41" y="233.0591">Display Provider</text><polygon fill="#181818" points="175,262.2578,185,266.2578,175,270.2578,179,266.2578" style="stroke:#181818;stroke-width:1.0;"/><line style="stroke:#181818;stroke-width:1.0;" x1="24" x2="181" y1="266.2578" y2="266.2578"/><text fill="#000000" font-family="sans-serif" font-size="13" lengthAdjust="spacing" textLength="139" x="31" y="261.1919">Select Provider "SWC"</text><path d="M559,279.2578 L559,319.2578 L806,319.2578 L806,289.2578 L796,279.2578 L559,279.2578 " fill="#FEFFDD" style="stroke:#181818;stroke-width:0.5;"/><path d="M796,279.2578 L796,289.2578 L806,289.2578 L796,279.2578 " fill="#FEFFDD" style="stroke:#181818;stroke-width:0.5;"/><text fill="#000000" font-family="sans-serif" font-size="13" lengthAdjust="spacing" textLength="226" x="565" y="296.3247">Define VC-Types in Service-Offering</text><text fill="#000000" font-family="sans-serif" font-size="13" lengthAdjust="spacing" textLength="223" x="565" y="311.4575">(VC-Types still need to be defined )</text><polygon fill="#181818" points="670.5,341.6563,680.5,345.6563,670.5,349.6563,674.5,345.6563" style="stroke:#181818;stroke-width:1.0;"/><line style="stroke:#181818;stroke-width:1.0;" x1="187" x2="676.5" y1="345.6563" y2="345.6563"/><text fill="#000000" font-family="sans-serif" font-size="13" lengthAdjust="spacing" textLength="263" x="194" y="340.5903">Request Connector-URL/VC-Type for SWC</text><polygon fill="#181818" points="198,353.6563,188,357.6563,198,361.6563,194,357.6563" style="stroke:#181818;stroke-width:1.0;"/><line style="stroke:#181818;stroke-width:1.0;stroke-dasharray:2.0,2.0;" x1="192" x2="681.5" y1="357.6563" y2="357.6563"/><text fill="#000000" font-family="sans-serif" font-size="13" lengthAdjust="spacing" textLength="94" x="204" y="370.7231">SWC Metadata</text><path d="M154.5,389.7891 L218.5,389.7891 L218.5,396.9219 L208.5,406.9219 L154.5,406.9219 L154.5,389.7891 " fill="#EEEEEE" style="stroke:#000000;stroke-width:1.5;"/><rect fill="none" height="394.2656" style="stroke:#000000;stroke-width:1.5;" width="469.5" x="154.5" y="389.7891"/><text fill="#000000" font-family="sans-serif" font-size="13" font-weight="bold" lengthAdjust="spacing" textLength="19" x="169.5" y="402.856">alt</text><text fill="#000000" font-family="sans-serif" font-size="11" font-weight="bold" lengthAdjust="spacing" textLength="90" x="233.5" y="401.9995">[Case "OIDC"]</text><polygon fill="#181818" points="419,424.0547,429,428.0547,419,432.0547,423,428.0547" style="stroke:#181818;stroke-width:1.0;"/><line style="stroke:#181818;stroke-width:1.0;" x1="187" x2="425" y1="428.0547" y2="428.0547"/><text fill="#000000" font-family="sans-serif" font-size="13" lengthAdjust="spacing" textLength="220" x="194" y="422.9888">Request Asset List (Access-Token)</text><line style="stroke:#181818;stroke-width:1.0;" x1="431" x2="473" y1="457.1875" y2="457.1875"/><line style="stroke:#181818;stroke-width:1.0;" x1="473" x2="473" y1="457.1875" y2="470.1875"/><line style="stroke:#181818;stroke-width:1.0;" x1="432" x2="473" y1="470.1875" y2="470.1875"/><polygon fill="#181818" points="442,466.1875,432,470.1875,442,474.1875,438,470.1875" style="stroke:#181818;stroke-width:1.0;"/><text fill="#000000" font-family="sans-serif" font-size="13" lengthAdjust="spacing" textLength="127" x="438" y="452.1216">Verify Access Token</text><line style="stroke:#181818;stroke-width:1.0;" x1="431" x2="473" y1="499.3203" y2="499.3203"/><line style="stroke:#181818;stroke-width:1.0;" x1="473" x2="473" y1="499.3203" y2="512.3203"/><line style="stroke:#181818;stroke-width:1.0;" x1="432" x2="473" y1="512.3203" y2="512.3203"/><polygon fill="#181818" points="442,508.3203,432,512.3203,442,516.3203,438,512.3203" style="stroke:#181818;stroke-width:1.0;"/><text fill="#000000" font-family="sans-serif" font-size="13" lengthAdjust="spacing" textLength="126" x="438" y="494.2544">Generate Asset List</text><polygon fill="#181818" points="198,520.3203,188,524.3203,198,528.3203,194,524.3203" style="stroke:#181818;stroke-width:1.0;"/><line style="stroke:#181818;stroke-width:1.0;stroke-dasharray:2.0,2.0;" x1="192" x2="430" y1="524.3203" y2="524.3203"/><text fill="#000000" font-family="sans-serif" font-size="13" lengthAdjust="spacing" textLength="62" x="204" y="537.3872">Asset List</text><line style="stroke:#000000;stroke-width:1.0;stroke-dasharray:2.0,2.0;" x1="154.5" x2="624" y1="550.4531" y2="550.4531"/><text fill="#000000" font-family="sans-serif" font-size="11" font-weight="bold" lengthAdjust="spacing" textLength="95" x="159.5" y="560.6636">[Case "VC/VP"]</text><path d="M192,569.2578 L192,594.2578 L578,594.2578 L578,579.2578 L568,569.2578 L192,569.2578 " fill="#FEFFDD" style="stroke:#181818;stroke-width:0.5;"/><path d="M568,569.2578 L568,579.2578 L578,579.2578 L568,569.2578 " fill="#FEFFDD" style="stroke:#181818;stroke-width:0.5;"/><text fill="#000000" font-family="sans-serif" font-size="13" lengthAdjust="spacing" textLength="365" x="198" y="586.3247">Where/How do we get a challenge for the VP? --&gt; Nonce?</text><line style="stroke:#181818;stroke-width:1.0;" x1="187" x2="229" y1="620.5234" y2="620.5234"/><line style="stroke:#181818;stroke-width:1.0;" x1="229" x2="229" y1="620.5234" y2="633.5234"/><line style="stroke:#181818;stroke-width:1.0;" x1="188" x2="229" y1="633.5234" y2="633.5234"/><polygon fill="#181818" points="198,629.5234,188,633.5234,198,637.5234,194,633.5234" style="stroke:#181818;stroke-width:1.0;"/><text fill="#000000" font-family="sans-serif" font-size="13" lengthAdjust="spacing" textLength="64" x="194" y="615.4575">Create VP</text><polygon fill="#181818" points="419,658.6563,429,662.6563,419,666.6563,423,662.6563" style="stroke:#181818;stroke-width:1.0;"/><line style="stroke:#181818;stroke-width:1.0;" x1="187" x2="425" y1="662.6563" y2="662.6563"/><text fill="#000000" font-family="sans-serif" font-size="13" lengthAdjust="spacing" textLength="149" x="194" y="657.5903">Request Asset List (VP)</text><line style="stroke:#181818;stroke-width:1.0;" x1="431" x2="473" y1="691.7891" y2="691.7891"/><line style="stroke:#181818;stroke-width:1.0;" x1="473" x2="473" y1="691.7891" y2="704.7891"/><line style="stroke:#181818;stroke-width:1.0;" x1="432" x2="473" y1="704.7891" y2="704.7891"/><polygon fill="#181818" points="442,700.7891,432,704.7891,442,708.7891,438,704.7891" style="stroke:#181818;stroke-width:1.0;"/><text fill="#000000" font-family="sans-serif" font-size="13" lengthAdjust="spacing" textLength="174" x="438" y="686.7231">Verify VP and contained VC</text><line style="stroke:#181818;stroke-width:1.0;" x1="431" x2="473" y1="733.9219" y2="733.9219"/><line style="stroke:#181818;stroke-width:1.0;" x1="473" x2="473" y1="733.9219" y2="746.9219"/><line style="stroke:#181818;stroke-width:1.0;" x1="432" x2="473" y1="746.9219" y2="746.9219"/><polygon fill="#181818" points="442,742.9219,432,746.9219,442,750.9219,438,746.9219" style="stroke:#181818;stroke-width:1.0;"/><text fill="#000000" font-family="sans-serif" font-size="13" lengthAdjust="spacing" textLength="126" x="438" y="728.856">Generate Asset List</text><polygon fill="#181818" points="198,754.9219,188,758.9219,198,762.9219,194,758.9219" style="stroke:#181818;stroke-width:1.0;"/><line style="stroke:#181818;stroke-width:1.0;stroke-dasharray:2.0,2.0;" x1="192" x2="430" y1="758.9219" y2="758.9219"/><text fill="#000000" font-family="sans-serif" font-size="13" lengthAdjust="spacing" textLength="62" x="204" y="771.9888">Asset List</text><!--SRC=[hLBBRjim4BppAnO-9GV1TwDeuCf84oHkX3peCqkDPC8igPAC3Vrzbv8Xsoa2z53Tg9cTdPtTk3EkKq7zee3OUHUnHeognJTOVrY6u0-KmZk4I2PPq39695gPgFqUeQTolPo_R4eXb4u-q5j44AoNZ3QTSYdZ5-_CFNy_eDVMgnsfI0-Nq2shPZqglcOPMf0qE50L_DxK257adupTbWoL0IfX0kdHn3GGlXG5CnOVa44tGwCmpzDPrK-a3trVOA7JIMB6Kyo4S9uxvXYorHKQuq2oB5xx3f6CuxAmDnh5KzCW6DUAgmcDoLXB3gWfUVe9geVocgu5N4rPMLpCzupVxuYSftSEEUhYxVbnVjIZXgFFoPu6pgut9QsHLAsIulrOBbOHD7kwNx5xuk_O81DF7SODvvJeQgarNqFnwdTmrqD9vaubaiTgUXfPDB3eRzPtE8Iyd9For3sRPTRY78DbbwDLMSvbDNeTmWwctIRopN1MTFmsMmJCx_XGQqy7KCj2YlHMMGlNZk6aBQ-ckg62NVtmJkDcA9-oFajZNFdndcJrRq79wlDuP4MA-sZlaXfsBCl_49AhXVW3]--></g></svg>