<?xml version="1.0" encoding="us-ascii" standalone="no"?><svg xmlns="http://www.w3.org/2000/svg" xmlns:xlink="http://www.w3.org/1999/xlink" contentStyleType="text/css" height="1030px" preserveAspectRatio="none" style="width:726px;height:1030px;background:#FFFFFF;" version="1.1" viewBox="0 0 726 1030" width="726px" zoomAndPan="magnify"><defs/><g><text fill="#000000" font-family="sans-serif" font-size="14" font-weight="bold" lengthAdjust="spacing" textLength="169" x="277.75" y="27.9951">Datenabruf CMA/SWC</text><rect fill="none" height="592.1953" style="stroke:#000000;stroke-width:1.5;" width="607" x="39" y="230.125"/><line style="stroke:#181818;stroke-width:0.5;stroke-dasharray:5.0,5.0;" x1="68" x2="68" y1="118.5938" y2="950.1172"/><line style="stroke:#181818;stroke-width:0.5;stroke-dasharray:5.0,5.0;" x1="200.5" x2="200.5" y1="118.5938" y2="950.1172"/><line style="stroke:#181818;stroke-width:0.5;stroke-dasharray:5.0,5.0;" x1="453" x2="453" y1="118.5938" y2="950.1172"/><line style="stroke:#181818;stroke-width:0.5;stroke-dasharray:5.0,5.0;" x1="640.5" x2="640.5" y1="118.5938" y2="950.1172"/><line style="stroke:#181818;stroke-width:0.5;stroke-dasharray:5.0,5.0;" x1="704.5" x2="704.5" y1="118.5938" y2="950.1172"/><text fill="#000000" font-family="sans-serif" font-size="14" lengthAdjust="spacing" textLength="32" x="49" y="115.292">User</text><ellipse cx="68" cy="50.7969" fill="#E2E2F0" rx="8" ry="8" style="stroke:#181818;stroke-width:0.5;"/><path d="M68,58.7969 L68,85.7969 M55,66.7969 L81,66.7969 M68,85.7969 L55,100.7969 M68,85.7969 L81,100.7969 " fill="none" style="stroke:#181818;stroke-width:0.5;"/><text fill="#000000" font-family="sans-serif" font-size="14" lengthAdjust="spacing" textLength="32" x="49" y="962.1123">User</text><ellipse cx="68" cy="973.9141" fill="#E2E2F0" rx="8" ry="8" style="stroke:#181818;stroke-width:0.5;"/><path d="M68,981.9141 L68,1008.9141 M55,989.9141 L81,989.9141 M68,1008.9141 L55,1023.9141 M68,1008.9141 L81,1023.9141 " fill="none" style="stroke:#181818;stroke-width:0.5;"/><rect fill="#E2E2F0" height="30.2969" rx="2.5" ry="2.5" style="stroke:#181818;stroke-width:0.5;" width="45" x="178.5" y="87.2969"/><text fill="#000000" font-family="sans-serif" font-size="14" lengthAdjust="spacing" textLength="31" x="185.5" y="107.292">CMA</text><rect fill="#E2E2F0" height="30.2969" rx="2.5" ry="2.5" style="stroke:#181818;stroke-width:0.5;" width="45" x="178.5" y="949.1172"/><text fill="#000000" font-family="sans-serif" font-size="14" lengthAdjust="spacing" textLength="31" x="185.5" y="969.1123">CMA</text><rect fill="#E2E2F0" height="30.2969" rx="2.5" ry="2.5" style="stroke:#181818;stroke-width:0.5;" width="46" x="430" y="87.2969"/><text fill="#000000" font-family="sans-serif" font-size="14" lengthAdjust="spacing" textLength="32" x="437" y="107.292">SWC</text><rect fill="#E2E2F0" height="30.2969" rx="2.5" ry="2.5" style="stroke:#181818;stroke-width:0.5;" width="46" x="430" y="949.1172"/><text fill="#000000" font-family="sans-serif" font-size="14" lengthAdjust="spacing" textLength="32" x="437" y="969.1123">SWC</text><rect fill="#E2E2F0" height="30.2969" rx="2.5" ry="2.5" style="stroke:#181818;stroke-width:0.5;" width="75" x="603.5" y="87.2969"/><text fill="#000000" font-family="sans-serif" font-size="14" lengthAdjust="spacing" textLength="61" x="610.5" y="107.292">Keycloak</text><rect fill="#E2E2F0" height="30.2969" rx="2.5" ry="2.5" style="stroke:#181818;stroke-width:0.5;" width="75" x="603.5" y="949.1172"/><text fill="#000000" font-family="sans-serif" font-size="14" lengthAdjust="spacing" textLength="61" x="610.5" y="969.1123">Keycloak</text><rect fill="#E2E2F0" height="30.2969" rx="2.5" ry="2.5" style="stroke:#181818;stroke-width:0.5;" width="32" x="688.5" y="87.2969"/><text fill="#000000" font-family="sans-serif" font-size="14" lengthAdjust="spacing" textLength="18" x="695.5" y="107.292">FC</text><rect fill="#E2E2F0" height="30.2969" rx="2.5" ry="2.5" style="stroke:#181818;stroke-width:0.5;" width="32" x="688.5" y="949.1172"/><text fill="#000000" font-family="sans-serif" font-size="14" lengthAdjust="spacing" textLength="18" x="695.5" y="969.1123">FC</text><path d="M5,133.5938 L5,188.5938 L265,188.5938 L265,143.5938 L255,133.5938 L5,133.5938 " fill="#FEFFDD" style="stroke:#181818;stroke-width:0.5;"/><path d="M255,133.5938 L255,143.5938 L265,143.5938 L255,133.5938 " fill="#FEFFDD" style="stroke:#181818;stroke-width:0.5;"/><text fill="#000000" font-family="sans-serif" font-size="13" font-weight="bold" lengthAdjust="spacing" textLength="95" x="11" y="150.6606">Prerequisite:</text><text fill="#000000" font-family="sans-serif" font-size="13" lengthAdjust="spacing" textLength="239" x="11" y="165.7935">Provider List has already been loaded</text><text fill="#000000" font-family="sans-serif" font-size="13" lengthAdjust="spacing" textLength="209" x="11" y="180.9263">and Provider "SWC" was selected</text><polygon fill="#181818" points="189,211.125,199,215.125,189,219.125,193,215.125" style="stroke:#181818;stroke-width:1.0;"/><line style="stroke:#181818;stroke-width:1.0;" x1="68" x2="195" y1="215.125" y2="215.125"/><text fill="#000000" font-family="sans-serif" font-size="13" lengthAdjust="spacing" textLength="109" x="75" y="210.0591">View SWC Assets</text><path d="M39,230.125 L103,230.125 L103,237.2578 L93,247.2578 L39,247.2578 L39,230.125 " fill="#EEEEEE" style="stroke:#000000;stroke-width:1.5;"/><rect fill="none" height="592.1953" style="stroke:#000000;stroke-width:1.5;" width="607" x="39" y="230.125"/><text fill="#000000" font-family="sans-serif" font-size="13" font-weight="bold" lengthAdjust="spacing" textLength="19" x="54" y="243.1919">alt</text><text fill="#000000" font-family="sans-serif" font-size="11" font-weight="bold" lengthAdjust="spacing" textLength="90" x="118" y="242.3354">[Case "OIDC"]</text><polygon fill="#181818" points="441,264.3906,451,268.3906,441,272.3906,445,268.3906" style="stroke:#181818;stroke-width:1.0;"/><line style="stroke:#181818;stroke-width:1.0;" x1="201" x2="447" y1="268.3906" y2="268.3906"/><text fill="#000000" font-family="sans-serif" font-size="13" lengthAdjust="spacing" textLength="228" x="208" y="263.3247">Generate Asset List (Access-Token)</text><polygon fill="#181818" points="212,276.3906,202,280.3906,212,284.3906,208,280.3906" style="stroke:#181818;stroke-width:1.0;"/><line style="stroke:#181818;stroke-width:1.0;stroke-dasharray:2.0,2.0;" x1="206" x2="452" y1="280.3906" y2="280.3906"/><text fill="#000000" font-family="sans-serif" font-size="13" lengthAdjust="spacing" textLength="62" x="218" y="293.4575">Asset List</text><polygon fill="#181818" points="79,305.5234,69,309.5234,79,313.5234,75,309.5234" style="stroke:#181818;stroke-width:1.0;"/><line style="stroke:#181818;stroke-width:1.0;stroke-dasharray:2.0,2.0;" x1="73" x2="200" y1="309.5234" y2="309.5234"/><text fill="#000000" font-family="sans-serif" font-size="13" lengthAdjust="spacing" textLength="93" x="85" y="322.5903">Display Assets</text><polygon fill="#181818" points="189,351.7891,199,355.7891,189,359.7891,193,355.7891" style="stroke:#181818;stroke-width:1.0;"/><line style="stroke:#181818;stroke-width:1.0;" x1="68" x2="195" y1="355.7891" y2="355.7891"/><text fill="#000000" font-family="sans-serif" font-size="13" lengthAdjust="spacing" textLength="80" x="75" y="350.7231">Select Asset</text><polygon fill="#181818" points="441,380.9219,451,384.9219,441,388.9219,445,384.9219" style="stroke:#181818;stroke-width:1.0;"/><line style="stroke:#181818;stroke-width:1.0;" x1="201" x2="447" y1="384.9219" y2="384.9219"/><text fill="#000000" font-family="sans-serif" font-size="13" lengthAdjust="spacing" textLength="194" x="208" y="379.856">Request Asset (Access-Token)</text><line style="stroke:#181818;stroke-width:1.0;" x1="453" x2="495" y1="414.0547" y2="414.0547"/><line style="stroke:#181818;stroke-width:1.0;" x1="495" x2="495" y1="414.0547" y2="427.0547"/><line style="stroke:#181818;stroke-width:1.0;" x1="454" x2="495" y1="427.0547" y2="427.0547"/><polygon fill="#181818" points="464,423.0547,454,427.0547,464,431.0547,460,427.0547" style="stroke:#181818;stroke-width:1.0;"/><text fill="#000000" font-family="sans-serif" font-size="13" lengthAdjust="spacing" textLength="127" x="460" y="408.9888">Verify Access Token</text><line style="stroke:#181818;stroke-width:1.0;" x1="453" x2="495" y1="456.1875" y2="456.1875"/><line style="stroke:#181818;stroke-width:1.0;" x1="495" x2="495" y1="456.1875" y2="469.1875"/><line style="stroke:#181818;stroke-width:1.0;" x1="454" x2="495" y1="469.1875" y2="469.1875"/><polygon fill="#181818" points="464,465.1875,454,469.1875,464,473.1875,460,469.1875" style="stroke:#181818;stroke-width:1.0;"/><text fill="#000000" font-family="sans-serif" font-size="13" lengthAdjust="spacing" textLength="156" x="460" y="451.1216">Prepare Asset Response</text><polygon fill="#181818" points="212,477.1875,202,481.1875,212,485.1875,208,481.1875" style="stroke:#181818;stroke-width:1.0;"/><line style="stroke:#181818;stroke-width:1.0;stroke-dasharray:2.0,2.0;" x1="206" x2="452" y1="481.1875" y2="481.1875"/><text fill="#000000" font-family="sans-serif" font-size="13" lengthAdjust="spacing" textLength="71" x="218" y="494.2544">Asset Data</text><line style="stroke:#000000;stroke-width:1.0;stroke-dasharray:2.0,2.0;" x1="39" x2="646" y1="507.3203" y2="507.3203"/><text fill="#000000" font-family="sans-serif" font-size="11" font-weight="bold" lengthAdjust="spacing" textLength="95" x="44" y="517.5308">[Case "VC/VP"]</text><line style="stroke:#181818;stroke-width:1.0;" x1="201" x2="243" y1="542.2578" y2="542.2578"/><line style="stroke:#181818;stroke-width:1.0;" x1="243" x2="243" y1="542.2578" y2="555.2578"/><line style="stroke:#181818;stroke-width:1.0;" x1="202" x2="243" y1="555.2578" y2="555.2578"/><polygon fill="#181818" points="212,551.2578,202,555.2578,212,559.2578,208,555.2578" style="stroke:#181818;stroke-width:1.0;"/><text fill="#000000" font-family="sans-serif" font-size="13" lengthAdjust="spacing" textLength="64" x="208" y="537.1919">Create VP</text><polygon fill="#181818" points="441,580.3906,451,584.3906,441,588.3906,445,584.3906" style="stroke:#181818;stroke-width:1.0;"/><line style="stroke:#181818;stroke-width:1.0;" x1="201" x2="447" y1="584.3906" y2="584.3906"/><text fill="#000000" font-family="sans-serif" font-size="13" lengthAdjust="spacing" textLength="157" x="208" y="579.3247">Generate Asset List (VP)</text><polygon fill="#181818" points="212,592.3906,202,596.3906,212,600.3906,208,596.3906" style="stroke:#181818;stroke-width:1.0;"/><line style="stroke:#181818;stroke-width:1.0;stroke-dasharray:2.0,2.0;" x1="206" x2="452" y1="596.3906" y2="596.3906"/><text fill="#000000" font-family="sans-serif" font-size="13" lengthAdjust="spacing" textLength="62" x="218" y="609.4575">Asset List</text><polygon fill="#181818" points="79,621.5234,69,625.5234,79,629.5234,75,625.5234" style="stroke:#181818;stroke-width:1.0;"/><line style="stroke:#181818;stroke-width:1.0;stroke-dasharray:2.0,2.0;" x1="73" x2="200" y1="625.5234" y2="625.5234"/><text fill="#000000" font-family="sans-serif" font-size="13" lengthAdjust="spacing" textLength="93" x="85" y="638.5903">Display Assets</text><polygon fill="#181818" points="189,667.7891,199,671.7891,189,675.7891,193,671.7891" style="stroke:#181818;stroke-width:1.0;"/><line style="stroke:#181818;stroke-width:1.0;" x1="68" x2="195" y1="671.7891" y2="671.7891"/><text fill="#000000" font-family="sans-serif" font-size="13" lengthAdjust="spacing" textLength="80" x="75" y="666.7231">Select Asset</text><polygon fill="#181818" points="441,696.9219,451,700.9219,441,704.9219,445,700.9219" style="stroke:#181818;stroke-width:1.0;"/><line style="stroke:#181818;stroke-width:1.0;" x1="201" x2="447" y1="700.9219" y2="700.9219"/><text fill="#000000" font-family="sans-serif" font-size="13" lengthAdjust="spacing" textLength="123" x="208" y="695.856">Request Asset (VP)</text><line style="stroke:#181818;stroke-width:1.0;" x1="453" x2="495" y1="730.0547" y2="730.0547"/><line style="stroke:#181818;stroke-width:1.0;" x1="495" x2="495" y1="730.0547" y2="743.0547"/><line style="stroke:#181818;stroke-width:1.0;" x1="454" x2="495" y1="743.0547" y2="743.0547"/><polygon fill="#181818" points="464,739.0547,454,743.0547,464,747.0547,460,743.0547" style="stroke:#181818;stroke-width:1.0;"/><text fill="#000000" font-family="sans-serif" font-size="13" lengthAdjust="spacing" textLength="174" x="460" y="724.9888">Verify VP and contained VC</text><line style="stroke:#181818;stroke-width:1.0;" x1="453" x2="495" y1="772.1875" y2="772.1875"/><line style="stroke:#181818;stroke-width:1.0;" x1="495" x2="495" y1="772.1875" y2="785.1875"/><line style="stroke:#181818;stroke-width:1.0;" x1="454" x2="495" y1="785.1875" y2="785.1875"/><polygon fill="#181818" points="464,781.1875,454,785.1875,464,789.1875,460,785.1875" style="stroke:#181818;stroke-width:1.0;"/><text fill="#000000" font-family="sans-serif" font-size="13" lengthAdjust="spacing" textLength="156" x="460" y="767.1216">Prepare Asset Response</text><polygon fill="#181818" points="212,793.1875,202,797.1875,212,801.1875,208,797.1875" style="stroke:#181818;stroke-width:1.0;"/><line style="stroke:#181818;stroke-width:1.0;stroke-dasharray:2.0,2.0;" x1="206" x2="452" y1="797.1875" y2="797.1875"/><text fill="#000000" font-family="sans-serif" font-size="13" lengthAdjust="spacing" textLength="71" x="218" y="810.2544">Asset Data</text><path d="M271,834.3203 L271,934.3203 L635,934.3203 L635,844.3203 L625,834.3203 L271,834.3203 " fill="#FEFFDD" style="stroke:#181818;stroke-width:0.5;"/><path d="M625,834.3203 L625,844.3203 L635,844.3203 L625,834.3203 " fill="#FEFFDD" style="stroke:#181818;stroke-width:0.5;"/><text fill="#000000" font-family="sans-serif" font-size="13" lengthAdjust="spacing" textLength="308" x="277" y="851.3872">Is data retrieval accomplished via the Connector</text><text fill="#000000" font-family="sans-serif" font-size="13" lengthAdjust="spacing" textLength="321" x="277" y="866.52">or does it happen directly between SWC and CMA?</text><text fill="#000000" font-family="sans-serif" font-size="13" lengthAdjust="spacing" textLength="4" x="277" y="881.6528">&#160;</text><text fill="#000000" font-family="sans-serif" font-size="13" font-weight="bold" lengthAdjust="spacing" textLength="94" x="277" y="896.7856">Background:</text><text fill="#000000" font-family="sans-serif" font-size="13" lengthAdjust="spacing" textLength="343" x="277" y="911.9185">If SWC and CMA don't communicate directly with each</text><text fill="#000000" font-family="sans-serif" font-size="13" lengthAdjust="spacing" textLength="267" x="277" y="927.0513">other E2E encryption is probably required.</text><!--SRC=[nLF1ZjCm4BtxAqQz01Lb9OuL0dNJ1LNBYcWNmdbgJpUZkdQmdKRzUyR9DagrYyG1YKWvMEzvviqRlxXdrs300mIAZNUHxYX6VAHhihvRXU0xIA4bfH8dIx36H0wteTr1SRUwUlXPA8Kw-G0_8WKbfH9hRj2bZ5-SCtTwlgMJjXxtW15kBw7FKjNvHE2FD5H-svURpyj0WNwr73dHSZvNPV17DaBwoZ51BQNG1a9pWYsH0wblo2Xq1aRcJ8JCe1Dg94iw2Kw2vtvAvLwm-9YxmH8gfYxhXbMCbAACQcKkZ0IpRvjrCLCWNwRAZKnRmXTo5CIZuSQWwlLAQp5ryTtloRqPxtnOBFAbvOJQOxs430uQrXmRYwUpX94nYdpefnZmvuBknIsAJ_1BKZ9jP5SKU2UzUXRqhESasO4iwppY_TEx-TDSyc9GaHNF1kEgugegBvmRnYXaRU9RLVwbgLNvdwqy2tZ9mAg4_EQqTmdPaO6g-3S-EZDDHexK9e8HIFAR0jCHBQ3M_j1OZhKqFZ92giLyxnprGLNo6qyHE0UcQIGcXeDWDeScTJatMM0UG7HyKXAxQzJxn-1RPtBeDhifGOgvLqbcFHnQnphlQQpNSQg1KDVAYuW0D-zlW9mEfoQnTy0Hck2tk1Lg7-j0vjqaZRy1]--></g></svg>