<?xml version="1.0" encoding="us-ascii" standalone="no"?><svg xmlns="http://www.w3.org/2000/svg" xmlns:xlink="http://www.w3.org/1999/xlink" contentStyleType="text/css" height="596px" preserveAspectRatio="none" style="width:698px;height:596px;background:#FFFFFF;" version="1.1" viewBox="0 0 698 596" width="698px" zoomAndPan="magnify"><defs/><g><text fill="#000000" font-family="sans-serif" font-size="14" font-weight="bold" lengthAdjust="spacing" textLength="260" x="218.25" y="27.9951">Credential Issuance SWC -&gt; CMA</text><rect fill="none" height="117.5313" style="stroke:#000000;stroke-width:1.5;" width="434.5" x="183.5" y="381.6563"/><line style="stroke:#181818;stroke-width:0.5;stroke-dasharray:5.0,5.0;" x1="24" x2="24" y1="118.5938" y2="516.1875"/><line style="stroke:#181818;stroke-width:0.5;stroke-dasharray:5.0,5.0;" x1="215.5" x2="215.5" y1="118.5938" y2="516.1875"/><line style="stroke:#181818;stroke-width:0.5;stroke-dasharray:5.0,5.0;" x1="472" x2="472" y1="118.5938" y2="516.1875"/><line style="stroke:#181818;stroke-width:0.5;stroke-dasharray:5.0,5.0;" x1="612.5" x2="612.5" y1="118.5938" y2="516.1875"/><line style="stroke:#181818;stroke-width:0.5;stroke-dasharray:5.0,5.0;" x1="676.5" x2="676.5" y1="118.5938" y2="516.1875"/><text fill="#000000" font-family="sans-serif" font-size="14" lengthAdjust="spacing" textLength="32" x="5" y="115.292">User</text><ellipse cx="24" cy="50.7969" fill="#E2E2F0" rx="8" ry="8" style="stroke:#181818;stroke-width:0.5;"/><path d="M24,58.7969 L24,85.7969 M11,66.7969 L37,66.7969 M24,85.7969 L11,100.7969 M24,85.7969 L37,100.7969 " fill="none" style="stroke:#181818;stroke-width:0.5;"/><text fill="#000000" font-family="sans-serif" font-size="14" lengthAdjust="spacing" textLength="32" x="5" y="528.1826">User</text><ellipse cx="24" cy="539.9844" fill="#E2E2F0" rx="8" ry="8" style="stroke:#181818;stroke-width:0.5;"/><path d="M24,547.9844 L24,574.9844 M11,555.9844 L37,555.9844 M24,574.9844 L11,589.9844 M24,574.9844 L37,589.9844 " fill="none" style="stroke:#181818;stroke-width:0.5;"/><rect fill="#E2E2F0" height="30.2969" rx="2.5" ry="2.5" style="stroke:#181818;stroke-width:0.5;" width="45" x="193.5" y="87.2969"/><text fill="#000000" font-family="sans-serif" font-size="14" lengthAdjust="spacing" textLength="31" x="200.5" y="107.292">CMA</text><rect fill="#E2E2F0" height="30.2969" rx="2.5" ry="2.5" style="stroke:#181818;stroke-width:0.5;" width="45" x="193.5" y="515.1875"/><text fill="#000000" font-family="sans-serif" font-size="14" lengthAdjust="spacing" textLength="31" x="200.5" y="535.1826">CMA</text><rect fill="#E2E2F0" height="30.2969" rx="2.5" ry="2.5" style="stroke:#181818;stroke-width:0.5;" width="46" x="449" y="87.2969"/><text fill="#000000" font-family="sans-serif" font-size="14" lengthAdjust="spacing" textLength="32" x="456" y="107.292">SWC</text><rect fill="#E2E2F0" height="30.2969" rx="2.5" ry="2.5" style="stroke:#181818;stroke-width:0.5;" width="46" x="449" y="515.1875"/><text fill="#000000" font-family="sans-serif" font-size="14" lengthAdjust="spacing" textLength="32" x="456" y="535.1826">SWC</text><rect fill="#E2E2F0" height="30.2969" rx="2.5" ry="2.5" style="stroke:#181818;stroke-width:0.5;" width="75" x="575.5" y="87.2969"/><text fill="#000000" font-family="sans-serif" font-size="14" lengthAdjust="spacing" textLength="61" x="582.5" y="107.292">Keycloak</text><rect fill="#E2E2F0" height="30.2969" rx="2.5" ry="2.5" style="stroke:#181818;stroke-width:0.5;" width="75" x="575.5" y="515.1875"/><text fill="#000000" font-family="sans-serif" font-size="14" lengthAdjust="spacing" textLength="61" x="582.5" y="535.1826">Keycloak</text><rect fill="#E2E2F0" height="30.2969" rx="2.5" ry="2.5" style="stroke:#181818;stroke-width:0.5;" width="32" x="660.5" y="87.2969"/><text fill="#000000" font-family="sans-serif" font-size="14" lengthAdjust="spacing" textLength="18" x="667.5" y="107.292">FC</text><rect fill="#E2E2F0" height="30.2969" rx="2.5" ry="2.5" style="stroke:#181818;stroke-width:0.5;" width="32" x="660.5" y="515.1875"/><text fill="#000000" font-family="sans-serif" font-size="14" lengthAdjust="spacing" textLength="18" x="667.5" y="535.1826">FC</text><polygon fill="#181818" points="204,145.7266,214,149.7266,204,153.7266,208,149.7266" style="stroke:#181818;stroke-width:1.0;"/><line style="stroke:#181818;stroke-width:1.0;" x1="24" x2="210" y1="149.7266" y2="149.7266"/><text fill="#000000" font-family="sans-serif" font-size="13" lengthAdjust="spacing" textLength="125" x="31" y="144.6606">Create New Identity</text><line style="stroke:#181818;stroke-width:1.0;" x1="216" x2="258" y1="178.8594" y2="178.8594"/><line style="stroke:#181818;stroke-width:1.0;" x1="258" x2="258" y1="178.8594" y2="191.8594"/><line style="stroke:#181818;stroke-width:1.0;" x1="217" x2="258" y1="191.8594" y2="191.8594"/><polygon fill="#181818" points="227,187.8594,217,191.8594,227,195.8594,223,191.8594" style="stroke:#181818;stroke-width:1.0;"/><text fill="#000000" font-family="sans-serif" font-size="13" lengthAdjust="spacing" textLength="149" x="223" y="173.7935">Create Identity Key Pair</text><polygon fill="#181818" points="204,216.9922,214,220.9922,204,224.9922,208,220.9922" style="stroke:#181818;stroke-width:1.0;"/><line style="stroke:#181818;stroke-width:1.0;" x1="24" x2="210" y1="220.9922" y2="220.9922"/><text fill="#000000" font-family="sans-serif" font-size="13" lengthAdjust="spacing" textLength="85" x="31" y="215.9263">List Providers</text><polygon fill="#181818" points="664.5,246.125,674.5,250.125,664.5,254.125,668.5,250.125" style="stroke:#181818;stroke-width:1.0;"/><line style="stroke:#181818;stroke-width:1.0;" x1="216" x2="670.5" y1="250.125" y2="250.125"/><text fill="#000000" font-family="sans-serif" font-size="13" lengthAdjust="spacing" textLength="250" x="223" y="245.0591">Request Providers/Endpoints (OIDC/VC)</text><polygon fill="#181818" points="227,258.125,217,262.125,227,266.125,223,262.125" style="stroke:#181818;stroke-width:1.0;"/><line style="stroke:#181818;stroke-width:1.0;stroke-dasharray:2.0,2.0;" x1="221" x2="675.5" y1="262.125" y2="262.125"/><text fill="#000000" font-family="sans-serif" font-size="13" lengthAdjust="spacing" textLength="126" x="233" y="275.1919">Providers/Endpoints</text><polygon fill="#181818" points="204,304.3906,214,308.3906,204,312.3906,208,308.3906" style="stroke:#181818;stroke-width:1.0;"/><line style="stroke:#181818;stroke-width:1.0;" x1="24" x2="210" y1="308.3906" y2="308.3906"/><text fill="#000000" font-family="sans-serif" font-size="13" lengthAdjust="spacing" textLength="168" x="31" y="303.3247">Provider Selection + Login</text><polygon fill="#181818" points="601,333.5234,611,337.5234,601,341.5234,605,337.5234" style="stroke:#181818;stroke-width:1.0;"/><line style="stroke:#181818;stroke-width:1.0;" x1="216" x2="607" y1="337.5234" y2="337.5234"/><text fill="#000000" font-family="sans-serif" font-size="13" lengthAdjust="spacing" textLength="71" x="223" y="332.4575">OIDC-Login</text><polygon fill="#181818" points="227,345.5234,217,349.5234,227,353.5234,223,349.5234" style="stroke:#181818;stroke-width:1.0;"/><line style="stroke:#181818;stroke-width:1.0;stroke-dasharray:2.0,2.0;" x1="221" x2="612" y1="349.5234" y2="349.5234"/><text fill="#000000" font-family="sans-serif" font-size="13" lengthAdjust="spacing" textLength="87" x="233" y="362.5903">Access Token</text><path d="M183.5,381.6563 L253.5,381.6563 L253.5,388.7891 L243.5,398.7891 L183.5,398.7891 L183.5,381.6563 " fill="#EEEEEE" style="stroke:#000000;stroke-width:1.5;"/><rect fill="none" height="117.5313" style="stroke:#000000;stroke-width:1.5;" width="434.5" x="183.5" y="381.6563"/><text fill="#000000" font-family="sans-serif" font-size="13" font-weight="bold" lengthAdjust="spacing" textLength="25" x="198.5" y="394.7231">opt</text><text fill="#000000" font-family="sans-serif" font-size="11" font-weight="bold" lengthAdjust="spacing" textLength="86" x="268.5" y="393.8667">[VC Creation]</text><polygon fill="#181818" points="460,415.9219,470,419.9219,460,423.9219,464,419.9219" style="stroke:#181818;stroke-width:1.0;"/><line style="stroke:#181818;stroke-width:1.0;" x1="216" x2="466" y1="419.9219" y2="419.9219"/><text fill="#000000" font-family="sans-serif" font-size="13" lengthAdjust="spacing" textLength="232" x="223" y="414.856">Request VC (Access Token, DID:JWK)</text><line style="stroke:#181818;stroke-width:1.0;" x1="472" x2="514" y1="449.0547" y2="449.0547"/><line style="stroke:#181818;stroke-width:1.0;" x1="514" x2="514" y1="449.0547" y2="462.0547"/><line style="stroke:#181818;stroke-width:1.0;" x1="473" x2="514" y1="462.0547" y2="462.0547"/><polygon fill="#181818" points="483,458.0547,473,462.0547,483,466.0547,479,462.0547" style="stroke:#181818;stroke-width:1.0;"/><text fill="#000000" font-family="sans-serif" font-size="13" lengthAdjust="spacing" textLength="127" x="479" y="443.9888">Verify Access Token</text><polygon fill="#181818" points="227,470.0547,217,474.0547,227,478.0547,223,474.0547" style="stroke:#181818;stroke-width:1.0;"/><line style="stroke:#181818;stroke-width:1.0;stroke-dasharray:2.0,2.0;" x1="221" x2="471" y1="474.0547" y2="474.0547"/><text fill="#000000" font-family="sans-serif" font-size="13" lengthAdjust="spacing" textLength="75" x="233" y="487.1216">Account-VC</text><!--SRC=[RP71JiCm44Jl-nLxR0LHxnL2AYwLGbgeAAHdoragAy4EzeOeVu-TD6eRuPizCs_MMbzgKqidlz6Hhwtnj2FlvOcUgBBjoZdR8hk605XpHIWS5MHOomfJxnjf5E7XA31vHB5R0KZ5rk6d9mS1orhfMXhkjUjxYDpSC-fKPMM9qcDsAsq4GEITAt0PPv1C-4ejflqmt45KfePHZ7JSI-qcdAtsZ7jdVtL1pe-8ZGZIE_qqTAqkdarHMstOu-mjNOj5BkPzuY59XiW_radVwC03LQHOMuDtkBKdRSRkB88YFhaynuB-VQLKM0r-s98CWAqPSp5yDP00mpbJuZukNmYcsNNq7jVfUlbopEPzvhoy8PEJqr_TRTC8ZdCChY3Rnd2I2o1Jm1y0]--></g></svg>